<svg xmlns="http://www.w3.org/2000/svg" width="285.597" height="34.489" viewBox="0 0 285.597 34.489">
  <g id="Group_107" data-name="Group 107" transform="translate(-5476 -8925)">
    <g id="Group_50" data-name="Group 50" transform="translate(5476 8925)">
      <path id="Path_87" data-name="Path 87" d="M465.965,478.257A17.245,17.245,0,1,0,483.209,495.5,17.244,17.244,0,0,0,465.965,478.257Zm2.828,25.607-4.491,4.491V492.221l4.491,4.491Zm6.256-11.635-4.491,4.491v-6.266H455.31l4.491-4.491h15.248Z" transform="translate(-448.72 -478.257)"/>
      <g id="Group_49" data-name="Group 49" transform="translate(48.195 7.279)">
        <path id="Path_88" data-name="Path 88" d="M899.756,505.92l-6.381,16.349-6.413-16.349h-4.233l8.253,20.844h4.754l8.252-20.844Z" transform="translate(-809.707 -505.473)"/>
        <path id="Path_89" data-name="Path 89" d="M981.875,505.92v20.844h14.183v-3.572H985.478V518.12h8.415v-3.573h-8.415v-5.053h10.581V505.92Z" transform="translate(-881.163 -505.473)"/>
        <path id="Path_90" data-name="Path 90" d="M1062.923,505.92v20.844h14.183v-3.572h-10.58V505.92Z" transform="translate(-939.574 -505.473)"/>
        <path id="Path_91" data-name="Path 91" d="M1148.162,515.182h-5.974v-5.688h5.974c1.961,0,3.027,1.072,3.027,2.828,0,1.818-1.066,2.86-3.027,2.86m.23-9.262h-9.807v20.844h3.6v-8.009h6.2c4.037,0,6.4-2.652,6.4-6.434a6.022,6.022,0,0,0-6.4-6.4" transform="translate(-994.104 -505.474)"/>
        <path id="Path_92" data-name="Path 92" d="M1225.742,522.484a6.88,6.88,0,0,1-7.066-7.236c0-4.228,2.943-7.354,7.066-7.354s7.068,3.126,7.068,7.354a6.9,6.9,0,0,1-7.068,7.236m.032-18.164a10.869,10.869,0,1,0,10.827,10.928,10.593,10.593,0,0,0-10.827-10.928" transform="translate(-1049.094 -504.32)"/>
        <path id="Path_93" data-name="Path 93" d="M1325.837,515.183h-6.089V509.5h6.089c1.9,0,3.056,1.072,3.056,2.828,0,1.818-1.153,2.861-3.056,2.861m6.66-2.861a6.09,6.09,0,0,0-6.43-6.4h-9.923v20.844h3.6v-8.009h5.368l3.6,8.04h3.921l-3.921-8.517a6.054,6.054,0,0,0,3.777-5.956" transform="translate(-1122.071 -505.475)"/>
        <path id="Path_94" data-name="Path 94" d="M730.852,515.183h-6.09V509.5h6.09c1.9,0,3.055,1.072,3.055,2.828,0,1.818-1.153,2.861-3.055,2.861m6.66-2.861a6.091,6.091,0,0,0-6.431-6.4h-9.923v20.844h3.6v-8.009h5.369l3.6,8.04h3.921l-3.921-8.517a6.055,6.055,0,0,0,3.778-5.956" transform="translate(-693.263 -505.475)"/>
        <path id="Path_95" data-name="Path 95" d="M1392.988,505.92l-3.573,3.574h9.065v17.27h3.6v-17.27h6.622l3.573-3.574Z" transform="translate(-1174.878 -505.473)"/>
        <path id="Path_96" data-name="Path 96" d="M811.915,510.064l3.653,9.554h-7.323Zm-2.148-4.144-8.188,20.844H805.5l1.372-3.572h10.063l1.366,3.572h3.95l-8.217-20.844Z" transform="translate(-751.222 -505.473)"/>
        <path id="Path_97" data-name="Path 97" d="M624.854,505.92l-3.573,3.574h9.065v17.27h3.6v-17.27h6.622l3.574-3.574Z" transform="translate(-621.28 -505.473)"/>
      </g>
    </g>
  </g>
</svg>
